<svg xmlns="http://www.w3.org/2000/svg" version="1.1" xmlns:xlink="http://www.w3.org/1999/xlink" width="512" height="512" x="0" y="0" viewBox="0 0 512 512" style="enable-background:new 0 0 512 512" xml:space="preserve" class=""><g><path fill="#a1a7a9" d="M360 136v60c0 8.28-6.72 15-15 15s-15-6.72-15-15v-60c0-8.28 6.72-15 15-15s15 6.72 15 15z" opacity="1" data-original="#fabe2c" class=""></path><path fill="#ff0000" d="M420 106v90c0 8.28-6.72 15-15 15s-15-6.72-15-15v-90c0-8.28 6.72-15 15-15s15 6.72 15 15z" opacity="1" data-original="#6aa9ff" class=""></path><path fill="#22bf63" d="M480 76v120c0 8.28-6.72 15-15 15s-15-6.72-15-15V76c0-8.28 6.72-15 15-15s15 6.72 15 15z" opacity="1" data-original="#ff435b" class=""></path><path fill="#ff0000" d="M270 46v195l-127-8-96.2-62.48C81.24 86.47 163.07 31 255 31c8.28 0 15 6.72 15 15z" opacity="1" data-original="#fed843" class=""></path><path fill="#22bf63" d="M480 256c0 119.33-92.66 216.8-210 224.5-4.96.33-9.96.5-15 .5-37.49 0-74.13-9.27-106.82-26.93L178.08 332 270 241h195c8.28 0 15 6.72 15 15z" opacity="1" data-original="#ff7b4a" class=""></path><path fill="#22bf63" d="M480 256c0 119.33-92.66 216.8-210 224.5V241h195c8.28 0 15 6.72 15 15z" opacity="1" data-original="#ff435b" class=""></path><path fill="#a1a7a9" d="M270 241 140.5 467.5c-4.4 7.04-13.67 9.15-20.68 4.76C47.02 426.66 0 346.11 0 256c0-27.58 4.38-54.72 13.02-80.66 2.62-7.85 11.12-12.11 18.98-9.49L270 241z" opacity="1" data-original="#7ed8f6" class=""></path><path fill="#61729b" d="M512 196c0 8.28-6.72 15-15 15H315c-8.28 0-15-6.72-15-15s6.72-15 15-15h182c8.28 0 15 6.72 15 15z" opacity="1" data-original="#61729b" class=""></path></g></svg>